# xmcd CD database file
#
# Track frame offsets:
#	150
#	35258
#	64030
#	94110
#	133768
#	150576
#	187787
#	230897
#	261895
#
# Disc length: 3702 seconds
#
# Revision: 0
# Processed by: cddbd v1.5.2PL0 Copyright (c) Steve Scherf et al.
# Submitted via: CDex 1.70beta3
#
DISCID=720e7409
DTITLE=Gene Dinovi - Brand New Morning
DYEAR=2007
DGENRE=Jazz
TTITLE0=Will You Still Be Mine
TTITLE1=Lisa
TTITLE2=Stardust
TTITLE3=Brand New Morning
TTITLE4=Flower of The Night
TTITLE5=Sleep
TTITLE6=No Moon At All
TTITLE7=Move
TTITLE8=Red Dragon Fly
EXTD=YEAR: 2007
EXTT0=
EXTT1=
EXTT2=
EXTT3=
EXTT4=
EXTT5=
EXTT6=
EXTT7=
EXTT8=
PLAYORDER=
